<?xml version="1.0" encoding="iso-8859-1"?>
<!-- Generator: Adobe Illustrator 16.0.0, SVG Export Plug-In . SVG Version: 6.00 Build 0)  -->
<!DOCTYPE svg PUBLIC "-//W3C//DTD SVG 1.1//EN" "http://www.w3.org/Graphics/SVG/1.1/DTD/svg11.dtd">
<svg version="1.1" id="Capa_1" xmlns="http://www.w3.org/2000/svg" xmlns:xlink="http://www.w3.org/1999/xlink" x="0px" y="0px"
	 width="400px" height="400px" viewBox="0 0 400 400" style="enable-background:new 0 0 400 400;" xml:space="preserve">
<g>
	<path d="M149.154,141.283v-57.09c0-5.277-3.137-10.051-7.984-12.139c-4.847-2.088-10.471-1.101-14.305,2.524L4.15,190.383
		C1.504,192.881,0,196.361,0,199.999c0,3.638,1.504,7.119,4.15,9.617l122.715,115.807c2.498,2.362,5.764,3.605,9.076,3.605
		c1.762,0,3.543-0.355,5.229-1.082c4.848-2.088,7.984-6.861,7.984-12.14V263.27c10.93-0.177,27.609-0.39,45.355-0.39
		c16.369,0,30.728,0.177,42.668,0.524c65.359,1.908,141.59,51.382,142.353,51.882c4.157,2.721,9.481,2.895,13.795,0.43
		c4.312-2.46,6.889-7.127,6.662-12.088C394.156,176.035,200.932,146.82,149.154,141.283z M237.947,236.979
		c-12.195-0.357-26.81-0.539-43.438-0.539c-30.889,0-58.602,0.634-58.879,0.64c-7.178,0.165-12.916,6.036-12.916,13.218v34.857
		L32.482,200l90.232-85.154v38.499c0,6.946,5.383,12.71,12.316,13.188c2.143,0.149,197.988,14.889,233.24,111.566
		C338.229,261.918,286.555,238.396,237.947,236.979z"/>
</g>
<g>
</g>
<g>
</g>
<g>
</g>
<g>
</g>
<g>
</g>
<g>
</g>
<g>
</g>
<g>
</g>
<g>
</g>
<g>
</g>
<g>
</g>
<g>
</g>
<g>
</g>
<g>
</g>
<g>
</g>
</svg>
